# Blender v2.79 (sub 0) OBJ File: ''
# www.blender.org
mtllib Plank.mtl
o Plank
v 0.015000 -0.500000 -0.050000
v 0.015000 -0.500000 0.050000
v -0.015000 -0.500000 0.050000
v -0.015000 -0.500000 -0.050000
v 0.015000 0.500000 -0.050000
v -0.015000 0.500000 -0.050000
v -0.015000 0.500000 0.050000
v 0.015000 0.500000 0.050000
vt 0.896552 0.850000
vt 0.896552 0.750000
vt 1.000000 0.750000
vt 1.000000 0.850000
vt 1.000000 0.950000
vt 0.896552 0.950000
vt 0.896552 0.850000
vt 1.000000 0.850000
vt 0.665086 0.000000
vt 0.665087 1.000000
vt 0.554742 1.000000
vt 0.554742 0.000000
vt 0.896552 0.000000
vt 0.896552 1.000000
vt 0.793104 1.000000
vt 0.793104 0.000000
vt 0.653018 1.000000
vt 0.653018 0.000000
vt 0.756466 0.000000
vt 0.756466 1.000000
vt 0.793104 0.000000
vt 0.793103 1.000000
vn 0.0000 -1.0000 0.0000
vn 0.0000 1.0000 0.0000
vn 1.0000 0.0000 0.0000
vn 0.0000 -0.0000 1.0000
vn -1.0000 -0.0000 0.0000
vn 0.0000 0.0000 -1.0000
usemtl Material.001
s 1
f 1/1/1 2/2/1 3/3/1 4/4/1
f 5/5/2 6/6/2 7/7/2 8/8/2
f 1/9/3 5/10/3 8/11/3 2/12/3
f 2/13/4 8/14/4 7/15/4 3/16/4
f 3/17/5 7/18/5 6/19/5 4/20/5
f 5/21/6 1/22/6 4/20/6 6/19/6
